<?xml version="1.0" encoding="UTF-8"?>
<svg width="20px" height="20px" viewBox="0 0 20 20" version="1.1" xmlns="http://www.w3.org/2000/svg" xmlns:xlink="http://www.w3.org/1999/xlink">
    <!-- Generator: Sketch 53.2 (72643) - https://sketchapp.com -->
    <title>icon_dmail</title>
    <desc>Created with Sketch.</desc>
    <g id="Page-1" stroke="none" stroke-width="1" fill="none" fill-rule="evenodd">
        <g id="字典项设置_1" transform="translate(-1190.000000, -14.000000)" fill="#333333" fill-rule="nonzero">
            <g id="nav">
                <g>
                    <g id="邮箱_icon" transform="translate(1190.000000, 14.000000)">
                        <g id="Group-2">
                            <rect id="Rectangle" opacity="0" x="0" y="0" width="20" height="20"></rect>
                            <path d="M16.454264,5.16275965 C16.7096509,4.93057707 17.1049229,4.9494043 17.3371054,5.20481113 C17.569288,5.46019799 17.5504608,5.85546998 17.2950539,6.08765258 L11.2612049,11.5729735 C10.5460698,12.2230927 9.45393023,12.2230927 8.7387951,11.5729735 L2.70492605,6.08765258 C2.44951922,5.85547 2.43071197,5.46019799 2.66289455,5.20481113 C2.89507713,4.9494043 3.29032914,4.93057707 3.545736,5.16275965 L9.57960502,10.6481006 C9.8179834,10.8648137 10.1820166,10.8648137 10.420395,10.6481006 L16.454264,5.16275965 Z M1.94444166,3.80340129 C1.60221369,3.80340129 1.3247818,4.08083318 1.3247818,4.42306117 L1.3247818,15.5769188 C1.3247818,15.9191468 1.60221369,16.1965787 1.94444166,16.1965787 L18.0555583,16.1965787 C18.3977863,16.1965787 18.6752182,15.9191468 18.6752182,15.5769188 L18.6752182,4.42306117 C18.6752182,4.0808332 18.3977863,3.80340131 18.0555583,3.80340129 L1.94444166,3.80340129 Z M1.94444166,2.56410154 L18.0555583,2.56410154 C19.0822422,2.56410154 19.9145379,3.39639725 19.9145379,4.42308115 L19.9145379,15.5769388 C19.9145379,16.6036227 19.0822422,17.4359184 18.0555583,17.4359185 L1.94444166,17.4359185 C0.917757754,17.4359185 0.0854620508,16.6036228 0.0854620508,15.5769388 L0.0854620508,4.42306117 C0.0854620508,3.39639725 0.917757754,2.56410154 1.94444166,2.56410154 Z" id="Shape"></path>
                        </g>
                    </g>
                </g>
            </g>
        </g>
    </g>
</svg>