<?xml version="1.0" encoding="UTF-8"?>
<svg width="20px" height="20px" viewBox="0 0 20 20" version="1.1" xmlns="http://www.w3.org/2000/svg" xmlns:xlink="http://www.w3.org/1999/xlink">
    <!-- Generator: Sketch 53.2 (72643) - https://sketchapp.com -->
    <title>Rectangle</title>
    <desc>Created with Sketch.</desc>
    <g id="Page-1" stroke="none" stroke-width="1" fill="none" fill-rule="evenodd">
        <g id="字典项设置_1" transform="translate(-1130.000000, -14.000000)" fill="#333333" fill-rule="nonzero">
            <g id="nav">
                <g>
                    <g id="新增项目_icon" transform="translate(1130.000000, 14.000000)">
                        <rect id="Rectangle" opacity="0" x="0" y="0" width="20" height="20"></rect>
                        <path d="M10.6249763,9.37502373 L14.3747939,9.37502373 C14.7199599,9.37502373 14.9997702,9.65483402 14.9997702,10 C14.9997702,10.345166 14.7199599,10.6249763 14.3747939,10.6249763 L10.6249763,10.6249763 L10.6249763,14.3747939 C10.6249763,14.7199599 10.345166,14.9997702 10,14.9997702 C9.65483402,14.9997702 9.37502373,14.7199599 9.37502373,14.3747939 L9.37502373,10.6249763 L5.62520611,10.6249763 C5.28004014,10.6249763 5.00022984,10.345166 5.00022984,10 C5.00022984,9.65483402 5.28004014,9.37502373 5.62520611,9.37502373 L9.37502373,9.37502373 L9.37502373,5.62520611 C9.37502373,5.28004014 9.65483402,5.00022984 10,5.00022984 C10.345166,5.00022984 10.6249763,5.28004014 10.6249763,5.62520611 L10.6249763,9.37502373 Z M2.50036475,10 C2.50036475,14.1418518 5.85814816,17.4996353 10,17.4996353 C14.1418518,17.4996353 17.4996353,14.1418518 17.4996353,10 C17.4996353,5.85814816 14.1418318,2.50036475 10,2.50036475 C5.85816816,2.50036475 2.50036475,5.85814818 2.50036475,10 Z M1.25041223,10 C1.25041223,5.16783621 5.16783621,1.25041223 10,1.25041223 C14.8321638,1.25041223 18.7495678,5.16783621 18.7495678,10 C18.7495678,14.8321638 14.8321438,18.7495678 10,18.7495678 C5.16785619,18.7495678 1.25041223,14.8321438 1.25041223,10 Z" id="Shape"></path>
                    </g>
                </g>
            </g>
        </g>
    </g>
</svg>