<?xml version="1.0" encoding="UTF-8"?>
<svg width="20px" height="20px" viewBox="0 0 20 20" version="1.1" xmlns="http://www.w3.org/2000/svg" xmlns:xlink="http://www.w3.org/1999/xlink">
    <!-- Generator: Sketch 53.2 (72643) - https://sketchapp.com -->
    <title>Group</title>
    <desc>Created with Sketch.</desc>
    <g id="Page-1" stroke="none" stroke-width="1" fill="none" fill-rule="evenodd">
        <g id="字典项设置_1" transform="translate(-1249.000000, -14.000000)" fill="#333333" fill-rule="nonzero">
            <g id="nav">
                <g>
                    <g id="二维码_icon" transform="translate(1249.000000, 14.000000)">
                        <g id="Group" transform="translate(1.000000, 1.000000)">
                            <rect id="Rectangle" opacity="0" x="0" y="0" width="18" height="18"></rect>
                            <path d="M3.65650689,3.35461757 L5.90640346,3.35461757 C6.06172815,3.35461757 6.18764277,3.48053219 6.18764277,3.6358569 L6.18764277,5.88575347 C6.18764277,6.04107816 6.06172815,6.16699278 5.90640346,6.16699278 L3.65650689,6.16699278 C3.5011822,6.16699278 3.37526757,6.04107816 3.37526757,5.88575347 L3.37526757,3.6358569 C3.37526757,3.48053221 3.5011822,3.35461758 3.65650689,3.35461757 L3.65650689,3.35461757 Z M10.6874179,2.51091759 L10.6874179,7.01069275 C10.6874179,7.16601744 10.8133326,7.29193206 10.9686573,7.29193206 L15.4684324,7.29193206 C15.6237571,7.29193206 15.7496717,7.16601744 15.7496717,7.01069275 L15.7496717,2.51091759 C15.7496717,2.3555929 15.6237571,2.22967828 15.4684324,2.22967828 L10.9686573,2.22967828 C10.8133326,2.22967828 10.6874179,2.3555929 10.6874179,2.51091759 L10.6874179,2.51091759 Z M10.6874179,1.104721 L15.7496717,1.104721 C16.3709705,1.104721 16.874611,1.60837952 16.874611,2.2296603 L16.874611,7.29191408 C16.874611,7.91321284 16.3709525,8.41685337 15.7496717,8.41685337 L10.6874179,8.41685337 C10.0661192,8.41685337 9.56247864,7.91319484 9.56247864,7.29191408 L9.56247864,2.22967828 C9.56247864,1.60837952 10.0661192,1.104721 10.6874179,1.104721 L10.6874179,1.104721 Z M2.25032827,10.9480072 L2.25032827,15.4477824 C2.25032827,15.6031071 2.37624289,15.7290217 2.5315676,15.7290217 L7.03134274,15.7290217 C7.18666743,15.7290217 7.31258205,15.6031071 7.31258207,15.4477824 L7.31258207,10.9480072 C7.31258207,10.7926826 7.18666745,10.6667679 7.03134274,10.6667679 L2.5315496,10.6667679 C2.37624289,10.6667679 2.25032827,10.7926826 2.25032827,10.9480072 L2.25032827,10.9480072 Z M2.25032827,9.54182863 L7.31258207,9.54182863 C7.93388083,9.54182863 8.43752136,10.0454872 8.43752136,10.6667679 L8.43752136,15.7290217 C8.43752136,16.3503205 7.93386283,16.853961 7.31258207,16.853961 L2.25032827,16.853961 C1.62902951,16.853961 1.12538899,16.3503025 1.12538899,15.7290217 L1.12538899,10.6667679 C1.125371,10.0454692 1.62902951,9.54182865 2.25032827,9.54182863 L2.25032827,9.54182863 Z M2.25032827,2.51091759 L2.25032827,7.01069275 C2.25032827,7.16601744 2.37624289,7.29193206 2.5315676,7.29193206 L7.03134274,7.29193206 C7.18666743,7.29193206 7.31258205,7.16601744 7.31258207,7.01069275 L7.31258207,2.51091759 C7.31258207,2.3555929 7.18666745,2.22967828 7.03134274,2.22967828 L2.5315496,2.22967828 C2.37624289,2.22967828 2.25032827,2.3555929 2.25032827,2.51091759 L2.25032827,2.51091759 Z M2.25032827,1.104721 L7.31258207,1.104721 C7.93388083,1.104721 8.43752136,1.60837952 8.43752136,2.2296603 L8.43752136,7.29191408 C8.43752136,7.91321284 7.93386283,8.41685337 7.31258207,8.41685337 L2.25032827,8.41685337 C1.62902951,8.41685337 1.12538899,7.91319484 1.12538899,7.29191408 L1.12538899,2.22967828 C1.125371,1.60837952 1.62902951,1.104721 2.25032827,1.104721 L2.25032827,1.104721 Z M14.0622538,14.6040824 L12.3748359,14.6040824 L12.3748359,16.2915004 C12.3748359,16.6021497 12.1230066,16.853979 11.8123572,16.853979 L10.1249393,16.853979 C9.81428991,16.853979 9.56246064,16.6021497 9.56246066,16.2915004 L9.56246066,14.6040824 C9.56246066,14.2934331 9.81428992,14.0416038 10.1249393,14.0416038 L11.8123572,14.0416038 L11.8123572,12.3541859 L10.1249393,12.3541859 C9.81428991,12.3541859 9.56246064,12.1023566 9.56246066,11.7917072 L9.56246066,10.1042893 C9.56246066,9.79363992 9.81428992,9.54181065 10.1249393,9.54181065 L11.8123572,9.54181065 C12.1230066,9.54181065 12.3748359,9.79363992 12.3748359,10.1042893 L12.3748359,11.7917072 L14.0622538,11.7917072 L14.0622538,10.1042893 C14.0622538,9.79363992 14.314083,9.54181065 14.6247324,9.54181065 L16.3121504,9.54181065 C16.6227997,9.54181065 16.874629,9.79363992 16.874629,10.1042893 L16.874629,16.2914824 C16.874629,16.6021318 16.6227997,16.853961 16.3121504,16.853961 L14.6247324,16.853961 C14.314083,16.853961 14.0622538,16.6021317 14.0622538,16.2914824 L14.0622538,14.6040824 Z" id="Shape"></path>
                        </g>
                    </g>
                </g>
            </g>
        </g>
    </g>
</svg>