<?xml version="1.0" encoding="UTF-8"?>
<svg width="14px" height="12px" viewBox="0 0 14 12" version="1.1" xmlns="http://www.w3.org/2000/svg" xmlns:xlink="http://www.w3.org/1999/xlink">
    <!-- Generator: Sketch 53.2 (72643) - https://sketchapp.com -->
    <title>Shape</title>
    <desc>Created with Sketch.</desc>
    <g id="Page-1" stroke="none" stroke-width="1" fill="none" fill-rule="evenodd">
        <g id="日租订单_订单详情" transform="translate(-971.000000, -638.000000)" fill="#329DFF" fill-rule="nonzero">
            <g id="Group-40">
                <g id="Group-39-Copy-3" transform="translate(590.000000, 546.000000)">
                    <g id="Group-29" transform="translate(20.000000, 20.000000)">
                        <g id="Group-23">
                            <g id="Group-14" transform="translate(0.000000, 40.000000)">
                                <g id="编辑-copy-2" transform="translate(361.000000, 31.000000)">
                                    <path d="M12.6466667,12.0866667 L1.4,12.0866667 C1.16666666,12.0866667 0.98,12.2733333 0.98,12.5066667 C0.98,12.74 1.16666666,12.9266667 1.4,12.9266667 L12.6933333,12.9266667 C12.9266667,12.9266667 13.1133333,12.74 13.1133333,12.5066667 C13.0666667,12.32 12.88,12.0866667 12.6466667,12.0866667 Z M1.35333334,10.8266667 L3.36,10.8266667 C3.45333334,10.8266667 3.59333334,10.78 3.64,10.6866667 L10.5466667,3.78 C10.7333333,3.59333334 10.7333333,3.36 10.5466667,3.17333334 L8.58666666,1.16666666 C8.4,0.98 8.16666666,0.98 7.98,1.16666666 L6.58,2.56666666 L1.07333334,8.07333334 C0.98,8.16666668 0.933333338,8.26 0.933333338,8.35333334 L0.933333338,10.36 C0.933333338,10.4533333 0.98,10.5933333 1.07333334,10.6866667 C1.12,10.78 1.26,10.8266667 1.35333334,10.8266667 Z M8.26,2.05333334 L9.66,3.45333334 L8.86666666,4.24666666 L7.46666666,2.84666666 L8.26,2.05333334 Z M1.82,8.54 L6.90666666,3.45333334 L8.30666666,4.85333334 L3.22,9.94 L1.82,9.94 L1.82,8.54 L1.82,8.54 Z" id="Shape"></path>
                                </g>
                            </g>
                        </g>
                    </g>
                </g>
            </g>
        </g>
    </g>
</svg>