<?xml version="1.0" encoding="UTF-8"?>
<svg width="16px" height="16px" viewBox="0 0 16 16" version="1.1" xmlns="http://www.w3.org/2000/svg" xmlns:xlink="http://www.w3.org/1999/xlink">
    <!-- Generator: Sketch 53.2 (72643) - https://sketchapp.com -->
    <title>Shape</title>
    <desc>Created with Sketch.</desc>
    <g id="Page-1" stroke="none" stroke-width="1" fill="none" fill-rule="evenodd">
        <g id="日租订单_订单详情" transform="translate(-1352.000000, -462.000000)" fill="#4B9AFC" fill-rule="nonzero">
            <g id="Group-40">
                <g id="Group-39-Copy-2" transform="translate(590.000000, 410.000000)">
                    <g id="Group-29" transform="translate(20.000000, 20.000000)">
                        <g id="Group-18" transform="translate(662.000000, 6.000000)">
                            <g id="Group-32">
                                <g id="房间数" transform="translate(80.000000, 26.000000)">
                                    <path d="M12,0 L4,0 C1.76,0 0,1.76 0,4 L0,12 C0,14.24 1.76,16 4,16 L12,16 C14.24,16 16,14.24 16,12 L16,4 C16,1.76 14.24,0 12,0 Z M5.6,5.6 C6.08,5.6 6.4,5.92 6.4,6.4 C6.4,6.88 6.08,7.2 5.6,7.2 C5.12,7.2 4.8,6.88 4.8,6.4 C4.8,5.92 5.12,5.6 5.6,5.6 Z M13.6,11.2 C13.6,11.68 13.28,12 12.8,12 C12.32,12 12,11.68 12,11.2 L12,10.4 L4,10.4 L4,11.2 C4,11.68 3.68,12 3.2,12 C2.72,12 2.4,11.68 2.4,11.2 L2.4,4.8 C2.4,4.32 2.72,4 3.2,4 C3.68,4 4,4.32 4,4.8 L4,8.8 L12.8,8.8 C13.28,8.8 13.6,9.12 13.6,9.6 L13.6,11.2 L13.6,11.2 Z M7.2,8 C7.2,8 7.6,5.6 8.8,5.6 C12.08,5.6 13.6,8 13.6,8 L7.2,8 L7.2,8 Z" id="Shape"></path>
                                </g>
                            </g>
                        </g>
                    </g>
                </g>
            </g>
        </g>
    </g>
</svg>